<mxfile host="Electron" modified="2024-02-11T07:29:37.968Z" agent="Mozilla/5.0 (Windows NT 10.0; Win64; x64) AppleWebKit/537.36 (KHTML, like Gecko) draw.io/23.0.2 Chrome/120.0.6099.109 Electron/28.1.0 Safari/537.36" etag="MDekkiJ4txOzD7ywKS2O" version="23.0.2" type="device">
  <diagram id="C5RBs43oDa-KdzZeNtuy" name="Page-1">
    <mxGraphModel dx="1344" dy="791" grid="1" gridSize="10" guides="1" tooltips="1" connect="1" arrows="1" fold="1" page="1" pageScale="1" pageWidth="827" pageHeight="1169" math="0" shadow="0">
      <root>
        <mxCell id="WIyWlLk6GJQsqaUBKTNV-0" />
        <mxCell id="WIyWlLk6GJQsqaUBKTNV-1" parent="WIyWlLk6GJQsqaUBKTNV-0" />
        <mxCell id="WIyWlLk6GJQsqaUBKTNV-2" value="" style="rounded=0;html=1;jettySize=auto;orthogonalLoop=1;fontSize=11;endArrow=block;endFill=0;endSize=8;strokeWidth=1;shadow=0;labelBackgroundColor=none;edgeStyle=orthogonalEdgeStyle;" parent="WIyWlLk6GJQsqaUBKTNV-1" edge="1">
          <mxGeometry relative="1" as="geometry">
            <mxPoint x="340.99999999999994" y="120" as="sourcePoint" />
            <mxPoint x="341.00000000000006" y="170" as="targetPoint" />
          </mxGeometry>
        </mxCell>
        <mxCell id="Hyi2GzqdrZCViDuYcZH3-0" value="how many time calculate?" style="rounded=1;whiteSpace=wrap;html=1;" parent="WIyWlLk6GJQsqaUBKTNV-1" vertex="1">
          <mxGeometry x="281" y="70" width="120" height="60" as="geometry" />
        </mxCell>
        <mxCell id="Hyi2GzqdrZCViDuYcZH3-1" value="n=2 to 1000 n++" style="shape=trapezoid;perimeter=trapezoidPerimeter;whiteSpace=wrap;html=1;fixedSize=1;" parent="WIyWlLk6GJQsqaUBKTNV-1" vertex="1">
          <mxGeometry x="278.5" y="170" width="125" height="50" as="geometry" />
        </mxCell>
        <mxCell id="Hyi2GzqdrZCViDuYcZH3-4" value="" style="endArrow=none;html=1;rounded=0;" parent="WIyWlLk6GJQsqaUBKTNV-1" edge="1">
          <mxGeometry width="50" height="50" relative="1" as="geometry">
            <mxPoint x="340.58000000000004" y="240" as="sourcePoint" />
            <mxPoint x="340.58000000000004" y="220" as="targetPoint" />
          </mxGeometry>
        </mxCell>
        <mxCell id="Hyi2GzqdrZCViDuYcZH3-5" value="i=2 to n i++" style="shape=trapezoid;perimeter=trapezoidPerimeter;whiteSpace=wrap;html=1;fixedSize=1;" parent="WIyWlLk6GJQsqaUBKTNV-1" vertex="1">
          <mxGeometry x="281" y="240" width="110" height="30" as="geometry" />
        </mxCell>
        <mxCell id="Hyi2GzqdrZCViDuYcZH3-8" value="" style="endArrow=classic;html=1;rounded=0;" parent="WIyWlLk6GJQsqaUBKTNV-1" edge="1">
          <mxGeometry width="50" height="50" relative="1" as="geometry">
            <mxPoint x="351" y="272" as="sourcePoint" />
            <mxPoint x="391" y="312" as="targetPoint" />
            <Array as="points">
              <mxPoint x="351" y="312" />
              <mxPoint x="371" y="312" />
            </Array>
          </mxGeometry>
        </mxCell>
        <mxCell id="Hyi2GzqdrZCViDuYcZH3-13" value="" style="endArrow=none;html=1;rounded=0;" parent="WIyWlLk6GJQsqaUBKTNV-1" edge="1">
          <mxGeometry width="50" height="50" relative="1" as="geometry">
            <mxPoint x="331" y="330" as="sourcePoint" />
            <mxPoint x="331" y="270" as="targetPoint" />
            <Array as="points">
              <mxPoint x="331" y="290" />
            </Array>
          </mxGeometry>
        </mxCell>
        <mxCell id="Hyi2GzqdrZCViDuYcZH3-14" value="increase&lt;br&gt;counter +1" style="rounded=0;whiteSpace=wrap;html=1;" parent="WIyWlLk6GJQsqaUBKTNV-1" vertex="1">
          <mxGeometry x="391" y="290" width="80" height="40" as="geometry" />
        </mxCell>
        <mxCell id="Hyi2GzqdrZCViDuYcZH3-15" value="n % i ==0?" style="rhombus;whiteSpace=wrap;html=1;" parent="WIyWlLk6GJQsqaUBKTNV-1" vertex="1">
          <mxGeometry x="291" y="330" width="80" height="60" as="geometry" />
        </mxCell>
        <mxCell id="Hyi2GzqdrZCViDuYcZH3-17" value="" style="endArrow=classic;html=1;rounded=0;entryX=0.933;entryY=0.627;entryDx=0;entryDy=0;entryPerimeter=0;" parent="WIyWlLk6GJQsqaUBKTNV-1" target="Hyi2GzqdrZCViDuYcZH3-5" edge="1">
          <mxGeometry width="50" height="50" relative="1" as="geometry">
            <mxPoint x="371" y="359.58" as="sourcePoint" />
            <mxPoint x="391" y="260" as="targetPoint" />
            <Array as="points">
              <mxPoint x="491" y="360" />
              <mxPoint x="491" y="260" />
            </Array>
          </mxGeometry>
        </mxCell>
        <mxCell id="Hyi2GzqdrZCViDuYcZH3-19" value="No" style="text;html=1;strokeColor=none;fillColor=none;align=center;verticalAlign=middle;whiteSpace=wrap;rounded=0;" parent="WIyWlLk6GJQsqaUBKTNV-1" vertex="1">
          <mxGeometry x="391" y="340" width="50" height="20" as="geometry" />
        </mxCell>
        <mxCell id="Hyi2GzqdrZCViDuYcZH3-20" value="n == i?" style="rhombus;whiteSpace=wrap;html=1;" parent="WIyWlLk6GJQsqaUBKTNV-1" vertex="1">
          <mxGeometry x="291" y="520" width="80" height="60" as="geometry" />
        </mxCell>
        <mxCell id="Hyi2GzqdrZCViDuYcZH3-22" value="" style="endArrow=classic;html=1;rounded=0;" parent="WIyWlLk6GJQsqaUBKTNV-1" edge="1">
          <mxGeometry width="50" height="50" relative="1" as="geometry">
            <mxPoint x="330.58" y="391" as="sourcePoint" />
            <mxPoint x="330.58" y="431" as="targetPoint" />
            <Array as="points">
              <mxPoint x="330.58" y="391" />
            </Array>
          </mxGeometry>
        </mxCell>
        <mxCell id="Hyi2GzqdrZCViDuYcZH3-25" value="break" style="rounded=0;whiteSpace=wrap;html=1;" parent="WIyWlLk6GJQsqaUBKTNV-1" vertex="1">
          <mxGeometry x="286" y="430" width="85" height="20" as="geometry" />
        </mxCell>
        <mxCell id="Hyi2GzqdrZCViDuYcZH3-26" value="Yes" style="text;html=1;strokeColor=none;fillColor=none;align=center;verticalAlign=middle;whiteSpace=wrap;rounded=0;" parent="WIyWlLk6GJQsqaUBKTNV-1" vertex="1">
          <mxGeometry x="328.5" y="400" width="50" height="20" as="geometry" />
        </mxCell>
        <mxCell id="Hyi2GzqdrZCViDuYcZH3-29" value="" style="endArrow=none;html=1;rounded=0;" parent="WIyWlLk6GJQsqaUBKTNV-1" edge="1">
          <mxGeometry width="50" height="50" relative="1" as="geometry">
            <mxPoint x="331" y="470" as="sourcePoint" />
            <mxPoint x="330.65999999999997" y="450" as="targetPoint" />
          </mxGeometry>
        </mxCell>
        <mxCell id="Hyi2GzqdrZCViDuYcZH3-27" value="" style="shape=trapezoid;perimeter=trapezoidPerimeter;whiteSpace=wrap;html=1;fixedSize=1;rotation=-180;" parent="WIyWlLk6GJQsqaUBKTNV-1" vertex="1">
          <mxGeometry x="281" y="470" width="110" height="30" as="geometry" />
        </mxCell>
        <mxCell id="Hyi2GzqdrZCViDuYcZH3-28" value="" style="shape=trapezoid;perimeter=trapezoidPerimeter;whiteSpace=wrap;html=1;fixedSize=1;rotation=-180;" parent="WIyWlLk6GJQsqaUBKTNV-1" vertex="1">
          <mxGeometry x="266" y="670" width="125" height="50" as="geometry" />
        </mxCell>
        <mxCell id="Hyi2GzqdrZCViDuYcZH3-31" value="" style="endArrow=none;html=1;rounded=0;" parent="WIyWlLk6GJQsqaUBKTNV-1" edge="1">
          <mxGeometry width="50" height="50" relative="1" as="geometry">
            <mxPoint x="331" y="670" as="sourcePoint" />
            <mxPoint x="330.65999999999997" y="650" as="targetPoint" />
          </mxGeometry>
        </mxCell>
        <mxCell id="Hyi2GzqdrZCViDuYcZH3-32" value="" style="endArrow=none;html=1;rounded=0;" parent="WIyWlLk6GJQsqaUBKTNV-1" edge="1">
          <mxGeometry width="50" height="50" relative="1" as="geometry">
            <mxPoint x="331" y="520" as="sourcePoint" />
            <mxPoint x="330.65999999999997" y="500" as="targetPoint" />
          </mxGeometry>
        </mxCell>
        <mxCell id="Hyi2GzqdrZCViDuYcZH3-33" value="" style="endArrow=classic;html=1;rounded=0;entryX=0.938;entryY=0.601;entryDx=0;entryDy=0;entryPerimeter=0;exitX=1;exitY=0.5;exitDx=0;exitDy=0;" parent="WIyWlLk6GJQsqaUBKTNV-1" source="Hyi2GzqdrZCViDuYcZH3-20" target="Hyi2GzqdrZCViDuYcZH3-1" edge="1">
          <mxGeometry width="50" height="50" relative="1" as="geometry">
            <mxPoint x="371" y="559.66" as="sourcePoint" />
            <mxPoint x="431" y="250" as="targetPoint" />
            <Array as="points">
              <mxPoint x="541" y="550" />
              <mxPoint x="541" y="200" />
            </Array>
          </mxGeometry>
        </mxCell>
        <mxCell id="Hyi2GzqdrZCViDuYcZH3-34" value="" style="endArrow=classic;html=1;rounded=0;" parent="WIyWlLk6GJQsqaUBKTNV-1" edge="1">
          <mxGeometry width="50" height="50" relative="1" as="geometry">
            <mxPoint x="330.65999999999997" y="580" as="sourcePoint" />
            <mxPoint x="331" y="620" as="targetPoint" />
            <Array as="points">
              <mxPoint x="330.65999999999997" y="600" />
            </Array>
          </mxGeometry>
        </mxCell>
        <mxCell id="Hyi2GzqdrZCViDuYcZH3-36" value="Yes" style="text;html=1;strokeColor=none;fillColor=none;align=center;verticalAlign=middle;whiteSpace=wrap;rounded=0;" parent="WIyWlLk6GJQsqaUBKTNV-1" vertex="1">
          <mxGeometry x="321" y="585" width="50" height="20" as="geometry" />
        </mxCell>
        <mxCell id="Hyi2GzqdrZCViDuYcZH3-37" value="No" style="text;html=1;strokeColor=none;fillColor=none;align=center;verticalAlign=middle;whiteSpace=wrap;rounded=0;" parent="WIyWlLk6GJQsqaUBKTNV-1" vertex="1">
          <mxGeometry x="406" y="530" width="50" height="20" as="geometry" />
        </mxCell>
        <mxCell id="Hyi2GzqdrZCViDuYcZH3-41" value="" style="endArrow=classic;html=1;rounded=0;entryX=0.922;entryY=0.389;entryDx=0;entryDy=0;entryPerimeter=0;" parent="WIyWlLk6GJQsqaUBKTNV-1" target="Hyi2GzqdrZCViDuYcZH3-1" edge="1">
          <mxGeometry width="50" height="50" relative="1" as="geometry">
            <mxPoint x="381" y="700" as="sourcePoint" />
            <mxPoint x="411" y="190" as="targetPoint" />
            <Array as="points">
              <mxPoint x="561" y="700" />
              <mxPoint x="561" y="190" />
            </Array>
          </mxGeometry>
        </mxCell>
        <mxCell id="Hyi2GzqdrZCViDuYcZH3-43" value="" style="endArrow=classic;html=1;rounded=0;entryX=1;entryY=0.25;entryDx=0;entryDy=0;" parent="WIyWlLk6GJQsqaUBKTNV-1" target="Hyi2GzqdrZCViDuYcZH3-5" edge="1">
          <mxGeometry width="50" height="50" relative="1" as="geometry">
            <mxPoint x="378.5" y="490" as="sourcePoint" />
            <mxPoint x="511" y="220" as="targetPoint" />
            <Array as="points">
              <mxPoint x="511" y="490" />
              <mxPoint x="511" y="250" />
            </Array>
          </mxGeometry>
        </mxCell>
        <mxCell id="Hyi2GzqdrZCViDuYcZH3-44" value="print &#39;n&#39;" style="shape=parallelogram;perimeter=parallelogramPerimeter;whiteSpace=wrap;html=1;fixedSize=1;" parent="WIyWlLk6GJQsqaUBKTNV-1" vertex="1">
          <mxGeometry x="283.5" y="620" width="95" height="30" as="geometry" />
        </mxCell>
        <mxCell id="Hyi2GzqdrZCViDuYcZH3-45" value="" style="endArrow=classic;html=1;rounded=0;" parent="WIyWlLk6GJQsqaUBKTNV-1" edge="1">
          <mxGeometry width="50" height="50" relative="1" as="geometry">
            <mxPoint x="328.5" y="720" as="sourcePoint" />
            <mxPoint x="329" y="770" as="targetPoint" />
            <Array as="points" />
          </mxGeometry>
        </mxCell>
        <mxCell id="Hyi2GzqdrZCViDuYcZH3-46" value="Total counting time" style="shape=parallelogram;perimeter=parallelogramPerimeter;whiteSpace=wrap;html=1;fixedSize=1;" parent="WIyWlLk6GJQsqaUBKTNV-1" vertex="1">
          <mxGeometry x="266" y="770" width="125" height="40" as="geometry" />
        </mxCell>
      </root>
    </mxGraphModel>
  </diagram>
</mxfile>
